<svg width="1920" height="1080" viewBox="0 0 1920 1080" fill="none" xmlns="http://www.w3.org/2000/svg">
<g clip-path="url(#clip0_23_16)">
<mask id="mask0_23_16" style="mask-type:luminance" maskUnits="userSpaceOnUse" x="0" y="0" width="1920" height="1080">
<path d="M1920 0H0V1080H1920V0Z" fill="white"/>
</mask>
<g mask="url(#mask0_23_16)">
<g filter="url(#filter0_f_23_16)">
<path d="M758.75 -57.4814C758.75 63.4741 502.158 301.153 146.31 301.153C-209.539 301.153 -276.526 63.4741 -276.526 -57.4814C-276.526 -178.436 -241.42 -276.491 114.429 -276.491C470.278 -276.491 758.75 -178.436 758.75 -57.4814Z" fill="url(#paint0_linear_23_16)"/>
</g>
</g>
<mask id="mask1_23_16" style="mask-type:luminance" maskUnits="userSpaceOnUse" x="0" y="0" width="1920" height="1080">
<path d="M1920 0H0V1080H1920V0Z" fill="white"/>
</mask>
<g mask="url(#mask1_23_16)">
<mask id="mask2_23_16" style="mask-type:luminance" maskUnits="userSpaceOnUse" x="0" y="0" width="1920" height="1080">
<path d="M1920 0H0V1080H1920V0Z" fill="white"/>
</mask>
<g mask="url(#mask2_23_16)">
<path d="M928.758 2714.46C1422.63 2697.7 1798.93 2272.15 2132.15 1869.04C2445.75 1489.65 2745.44 1053.17 2726.11 540C2707.36 41.2136 2345.52 -318.87 2035.77 -682.599C1711.02 -1064.05 1401.02 -1525.19 928.758 -1570.9C429.451 -1619.29 -48.9696 -1322.13 -391.201 -917.769C-722.396 -526.365 -865.309 4.20428 -857.713 540C-850.274 1066.77 -671.282 1563.03 -350.81 1953.16C-12.4555 2365.12 425.434 2731.55 928.758 2714.46Z" stroke="#808080" stroke-opacity="0.4" stroke-width="0.5" stroke-dasharray="4.81 4.81"/>
<path d="M928.758 2396.25C1350.36 2381.94 1671.6 2018.65 1956.04 1674.54C2223.74 1350.67 2479.59 978.075 2463.09 540C2447.07 114.21 2138.18 -193.185 1873.78 -503.685C1596.54 -829.305 1331.89 -1222.97 928.758 -1261.98C502.515 -1303.29 94.1181 -1049.63 -198.03 -704.43C-480.767 -370.305 -602.759 82.6195 -596.282 540C-589.924 989.685 -437.127 1413.31 -163.56 1746.36C125.289 2098.03 499.092 2410.83 928.758 2396.25Z" stroke="#808080" stroke-opacity="0.4" stroke-width="0.5" stroke-dasharray="4.81 4.81"/>
<path d="M928.758 2078.04C1278.08 2066.17 1544.26 1765.16 1779.94 1480.04C2001.75 1211.7 2213.74 902.976 2200.06 539.999C2186.8 187.205 1930.84 -67.5009 1711.78 -324.773C1482.06 -594.561 1262.78 -920.74 928.758 -953.063C575.578 -987.295 237.206 -777.119 -4.85917 -491.093C-239.137 -214.246 -340.21 161.034 -334.849 539.999C-329.576 912.599 -202.972 1263.6 23.6921 1539.56C263.033 1830.95 572.749 2090.11 928.758 2078.04Z" stroke="#808080" stroke-opacity="0.4" stroke-width="0.5" stroke-dasharray="4.81 4.81"/>
<path d="M928.758 1759.82C1205.8 1750.41 1416.91 1511.69 1603.83 1285.55C1779.74 1072.73 1947.87 827.878 1937.02 540C1926.52 260.203 1723.52 58.1845 1549.77 -145.858C1367.6 -359.833 1193.68 -618.512 928.758 -644.162C648.658 -671.297 380.277 -504.611 188.294 -277.772C2.49223 -58.2048 -77.6609 239.432 -73.4175 540C-69.2265 835.515 31.1836 1113.88 210.943 1332.76C400.76 1563.86 646.406 1769.41 928.758 1759.82Z" stroke="#808080" stroke-opacity="0.4" stroke-width="0.5" stroke-dasharray="4.81 4.81"/>
<path d="M928.758 1441.61C1133.54 1434.66 1289.56 1258.2 1427.74 1091.07C1557.76 933.755 1682.03 752.778 1674.01 539.999C1666.22 333.179 1516.19 183.888 1387.77 33.074C1253.1 -125.088 1124.57 -316.306 928.758 -335.245C721.722 -355.321 523.365 -232.105 381.464 -64.4346C244.139 97.8546 184.87 317.847 188.032 539.999C191.105 758.409 265.321 964.188 398.211 1125.94C538.505 1296.75 720.063 1448.68 928.758 1441.61Z" stroke="#808080" stroke-opacity="0.4" stroke-width="0.5" stroke-dasharray="4.81 4.81"/>
<path d="M928.758 1123.39C1061.26 1118.9 1162.21 1004.73 1251.62 896.573C1335.76 794.783 1416.16 677.68 1410.97 539.999C1405.94 406.175 1308.87 309.573 1225.76 211.988C1138.64 109.638 1055.47 -14.0791 928.758 -26.3448C794.803 -39.3241 666.436 40.403 574.618 148.885C485.768 253.895 447.42 396.243 449.463 539.999C451.454 681.325 499.477 814.473 585.462 919.137C676.233 1029.66 793.72 1127.98 928.758 1123.39Z" stroke="#808080" stroke-opacity="0.4" stroke-width="0.5" stroke-dasharray="4.81 4.81"/>
<path d="M928.758 805.177C988.991 803.133 1034.88 751.236 1075.51 702.077C1113.75 655.811 1150.31 602.581 1147.95 539.999C1145.66 479.172 1101.53 435.258 1063.76 390.901C1024.16 344.384 986.345 288.147 928.758 282.573C867.867 276.672 809.524 312.909 767.788 362.223C727.397 409.955 709.97 474.659 710.895 539.999C711.804 604.239 733.631 664.758 772.712 712.336C813.977 762.575 867.377 807.26 928.758 805.177Z" stroke="#808080" stroke-opacity="0.4" stroke-width="0.5" stroke-dasharray="4.81 4.81"/>
</g>
<g filter="url(#filter1_f_23_16)">
<path opacity="0.65" d="M1666.15 825.11C1744.11 825.11 1807.31 761.29 1807.31 682.557C1807.31 603.825 1744.11 540 1666.15 540C1588.2 540 1525 603.825 1525 682.557C1525 761.29 1588.2 825.11 1666.15 825.11Z" fill="url(#paint1_linear_23_16)"/>
</g>
</g>
</g>
<defs>
<filter id="filter0_f_23_16" x="-663.546" y="-663.511" width="1809.32" height="1351.68" filterUnits="userSpaceOnUse" color-interpolation-filters="sRGB">
<feFlood flood-opacity="0" result="BackgroundImageFix"/>
<feBlend mode="normal" in="SourceGraphic" in2="BackgroundImageFix" result="shape"/>
<feGaussianBlur stdDeviation="193.51" result="effect1_foregroundBlur_23_16"/>
</filter>
<filter id="filter1_f_23_16" x="1298.72" y="313.718" width="734.874" height="737.674" filterUnits="userSpaceOnUse" color-interpolation-filters="sRGB">
<feFlood flood-opacity="0" result="BackgroundImageFix"/>
<feBlend mode="normal" in="SourceGraphic" in2="BackgroundImageFix" result="shape"/>
<feGaussianBlur stdDeviation="113.141" result="effect1_foregroundBlur_23_16"/>
</filter>
<linearGradient id="paint0_linear_23_16" x1="241.111" y1="-276.491" x2="390.831" y2="902.204" gradientUnits="userSpaceOnUse">
<stop stop-color="#205EEE"/>
<stop offset="1" stop-color="#B61AFF" stop-opacity="0"/>
</linearGradient>
<linearGradient id="paint1_linear_23_16" x1="1453.96" y1="597.5" x2="1791.45" y2="623.666" gradientUnits="userSpaceOnUse">
<stop stop-color="#B61AFF" stop-opacity="0"/>
<stop offset="1" stop-color="#205EEE"/>
</linearGradient>
<clipPath id="clip0_23_16">
<rect width="1920" height="1080" fill="white"/>
</clipPath>
</defs>
</svg>
