<svg width="512" height="448" viewBox="0 0 512 448" fill="none" xmlns="http://www.w3.org/2000/svg">
<path d="M0 64C0 28.7 28.7 0 64 0H448C483.3 0 512 28.7 512 64V384C512 419.3 483.3 448 448 448H64C28.7 448 0 419.3 0 384V64ZM323.8 170.5C319.3 163.9 311.9 160 304 160C296.1 160 288.6 163.9 284.2 170.5L197.2 298.1L170.7 265C166.1 259.3 159.2 256 152 256C144.8 256 137.8 259.3 133.3 265L69.3 345C63.5 352.2 62.4 362.1 66.4 370.4C70.4 378.7 78.8 384 88 384H184H216H424C432.9 384 441.1 379.1 445.2 371.2C449.3 363.3 448.8 353.8 443.8 346.5L323.8 170.5ZM112 160C124.73 160 136.939 154.943 145.941 145.941C154.943 136.939 160 124.73 160 112C160 99.2696 154.943 87.0606 145.941 78.0589C136.939 69.0571 124.73 64 112 64C99.2696 64 87.0606 69.0571 78.0589 78.0589C69.0571 87.0606 64 99.2696 64 112C64 124.73 69.0571 136.939 78.0589 145.941C87.0606 154.943 99.2696 160 112 160Z" fill="black" fill-opacity="0.2"/>
</svg>
