<svg width="1920" height="1080" viewBox="0 0 1920 1080" fill="none" xmlns="http://www.w3.org/2000/svg">
<g clip-path="url(#clip0_23_16)">
<mask id="mask0_23_16" style="mask-type:luminance" maskUnits="userSpaceOnUse" x="0" y="0" width="1920" height="1080">
<path d="M1920 0H0V1080H1920V0Z" fill="white"/>
</mask>
<g mask="url(#mask0_23_16)">
<g filter="url(#filter0_f_23_16)">
<path d="M758.75 -57.4815C758.75 63.4741 502.158 301.153 146.31 301.153C-209.539 301.153 -276.526 63.4741 -276.526 -57.4815C-276.526 -178.436 -241.42 -276.491 114.429 -276.491C470.278 -276.491 758.75 -178.436 758.75 -57.4815Z" fill="url(#paint0_linear_23_16)"/>
</g>
</g>
<mask id="mask1_23_16" style="mask-type:luminance" maskUnits="userSpaceOnUse" x="0" y="0" width="1920" height="1080">
<path d="M1920 0H0V1080H1920V0Z" fill="white"/>
</mask>
<g mask="url(#mask1_23_16)">
<mask id="mask2_23_16" style="mask-type:luminance" maskUnits="userSpaceOnUse" x="0" y="0" width="1920" height="1080">
<path d="M1920 0H0V1080H1920V0Z" fill="white"/>
</mask>
<g mask="url(#mask2_23_16)">
<path d="M960 2714.46C1337.09 2697.7 1624.41 2272.15 1878.84 1869.04C2118.28 1489.65 2347.11 1053.17 2332.35 540C2318.03 41.2136 2041.75 -318.87 1805.25 -682.599C1557.29 -1064.05 1320.59 -1525.19 960 -1570.9C578.76 -1619.29 213.467 -1322.13 -47.8399 -917.769C-300.72 -526.365 -409.84 4.20428 -404.04 540C-398.36 1066.77 -261.693 1563.03 -16.9998 1953.16C241.347 2365.12 575.693 2731.55 960 2714.46Z" stroke="#808080" stroke-opacity="0.4" stroke-width="0.320713" stroke-dasharray="4.81 4.81"/>
<path d="M960 2396.25C1281.91 2381.94 1527.19 2018.65 1744.37 1674.54C1948.77 1350.67 2144.12 978.075 2131.52 540C2119.29 114.21 1883.44 -193.185 1681.56 -503.685C1469.88 -829.305 1267.81 -1222.97 960 -1261.98C634.547 -1303.29 322.72 -1049.63 99.6535 -704.43C-116.227 -370.305 -209.373 82.6195 -204.427 540C-199.573 989.685 -82.9065 1413.31 125.973 1746.36C346.52 2098.03 631.933 2410.83 960 2396.25Z" stroke="#808080" stroke-opacity="0.4" stroke-width="0.320713" stroke-dasharray="4.81 4.81"/>
<path d="M960 2078.04C1226.72 2066.17 1429.96 1765.16 1609.91 1480.04C1779.27 1211.7 1941.13 902.976 1930.69 539.999C1920.56 187.205 1725.13 -67.5009 1557.87 -324.773C1382.47 -594.561 1215.04 -920.74 960 -953.063C690.333 -987.295 431.973 -777.119 247.147 -491.093C68.2668 -214.246 -8.90656 161.034 -4.81322 539.999C-0.786557 912.599 95.8801 1263.6 268.947 1539.56C451.693 1830.95 688.173 2090.11 960 2078.04Z" stroke="#808080" stroke-opacity="0.4" stroke-width="0.320713" stroke-dasharray="4.81 4.81"/>
<path d="M960 1759.82C1171.53 1750.41 1332.72 1511.69 1475.44 1285.55C1609.76 1072.73 1738.13 827.878 1729.85 540C1721.83 260.203 1566.83 58.1845 1434.17 -145.858C1295.07 -359.833 1162.28 -618.512 960 -644.162C746.133 -671.297 541.213 -504.611 394.627 -277.772C252.76 -58.2048 191.56 239.432 194.8 540C198 835.515 274.667 1113.88 411.92 1332.76C556.853 1563.86 744.413 1769.41 960 1759.82Z" stroke="#808080" stroke-opacity="0.4" stroke-width="0.320713" stroke-dasharray="4.81 4.81"/>
<path d="M960 1441.61C1116.36 1434.66 1235.49 1258.2 1340.99 1091.07C1440.27 933.755 1535.15 752.778 1529.03 539.999C1523.08 333.179 1408.53 183.888 1310.47 33.074C1207.65 -125.088 1109.51 -316.306 960 -335.245C801.92 -355.321 650.467 -232.105 542.12 -64.4346C437.267 97.8546 392.013 317.847 394.427 539.999C396.773 758.409 453.44 964.188 554.907 1125.94C662.027 1296.75 800.653 1448.68 960 1441.61Z" stroke="#808080" stroke-opacity="0.4" stroke-width="0.320713" stroke-dasharray="4.81 4.81"/>
<path d="M960 1123.39C1061.17 1118.9 1138.25 1004.73 1206.52 896.573C1270.76 794.783 1332.15 677.68 1328.19 539.999C1324.35 406.175 1250.23 309.573 1186.77 211.988C1120.25 109.638 1056.75 -14.0791 960 -26.3448C857.72 -39.3241 759.707 40.403 689.6 148.885C621.76 253.895 592.48 396.243 594.04 539.999C595.56 681.325 632.227 814.473 697.88 919.137C767.187 1029.66 856.893 1127.98 960 1123.39Z" stroke="#808080" stroke-opacity="0.4" stroke-width="0.320713" stroke-dasharray="4.81 4.81"/>
<path d="M960 805.177C1005.99 803.133 1041.03 751.236 1072.05 702.077C1101.25 655.811 1129.16 602.581 1127.36 539.999C1125.61 479.172 1091.92 435.258 1063.08 390.901C1032.84 344.384 1003.97 288.147 960 282.573C913.507 276.672 868.96 312.909 837.093 362.223C806.253 409.955 792.947 474.659 793.653 539.999C794.347 604.239 811.013 664.758 840.853 712.336C872.36 762.575 913.133 807.26 960 805.177Z" stroke="#808080" stroke-opacity="0.4" stroke-width="0.320713" stroke-dasharray="4.81 4.81"/>
</g>
<g filter="url(#filter1_f_23_16)">
<path d="M1666.15 825.11C1744.11 825.11 1807.31 761.29 1807.31 682.557C1807.31 603.825 1744.11 540 1666.15 540C1588.2 540 1525 603.825 1525 682.557C1525 761.29 1588.2 825.11 1666.15 825.11Z" fill="url(#paint1_linear_23_16)"/>
</g>
</g>
</g>
<defs>
<filter id="filter0_f_23_16" x="-663.546" y="-663.511" width="1809.32" height="1351.68" filterUnits="userSpaceOnUse" color-interpolation-filters="sRGB">
<feFlood flood-opacity="0" result="BackgroundImageFix"/>
<feBlend mode="normal" in="SourceGraphic" in2="BackgroundImageFix" result="shape"/>
<feGaussianBlur stdDeviation="193.51" result="effect1_foregroundBlur_23_16"/>
</filter>
<filter id="filter1_f_23_16" x="1298.72" y="313.718" width="734.874" height="737.674" filterUnits="userSpaceOnUse" color-interpolation-filters="sRGB">
<feFlood flood-opacity="0" result="BackgroundImageFix"/>
<feBlend mode="normal" in="SourceGraphic" in2="BackgroundImageFix" result="shape"/>
<feGaussianBlur stdDeviation="113.141" result="effect1_foregroundBlur_23_16"/>
</filter>
<linearGradient id="paint0_linear_23_16" x1="241.111" y1="-276.491" x2="390.831" y2="902.204" gradientUnits="userSpaceOnUse">
<stop stop-color="#205EEE"/>
<stop offset="1" stop-color="#B61AFF" stop-opacity="0"/>
</linearGradient>
<linearGradient id="paint1_linear_23_16" x1="1453.96" y1="597.5" x2="1791.45" y2="623.666" gradientUnits="userSpaceOnUse">
<stop stop-color="#B61AFF" stop-opacity="0"/>
<stop offset="1" stop-color="#205EEE"/>
</linearGradient>
<clipPath id="clip0_23_16">
<rect width="1920" height="1080" fill="white"/>
</clipPath>
</defs>
</svg>
